<?xml version="1.0" encoding="UTF-8" standalone="no"?>
<!DOCTYPE svg PUBLIC "-//W3C//DTD SVG 1.1//EN" "http://www.w3.org/Graphics/SVG/1.1/DTD/svg11.dtd">
<svg width="100%" height="100%" viewBox="0 0 512 512" version="1.1" xmlns="http://www.w3.org/2000/svg" xmlns:xlink="http://www.w3.org/1999/xlink" xml:space="preserve" xmlns:serif="http://www.serif.com/" style="fill-rule:evenodd;clip-rule:evenodd;stroke-linejoin:round;stroke-miterlimit:2;">
    <path d="M256,512C397.4,512 512,397.4 512,256C512,114.6 397.4,0 256,0C114.6,0 0,114.6 0,256C0,397.4 114.6,512 256,512ZM369,209L241,337C231.6,346.4 216.4,346.4 207.1,337L143.1,273C133.7,263.6 133.7,248.4 143.1,239.1C152.5,229.8 167.7,229.7 177,239.1L224,286.1L335,175C344.4,165.6 359.6,165.6 368.9,175C378.2,184.4 378.3,199.6 368.9,208.9L369,209Z" style="fill:rgb(47,183,25);fill-rule:nonzero;"/>
</svg>
