<?xml version="1.0" encoding="UTF-8" standalone="no"?>
<!DOCTYPE svg PUBLIC "-//W3C//DTD SVG 1.1//EN" "http://www.w3.org/Graphics/SVG/1.1/DTD/svg11.dtd">
<svg width="100%" height="100%" viewBox="0 0 908 715" version="1.1" xmlns="http://www.w3.org/2000/svg" xmlns:xlink="http://www.w3.org/1999/xlink" xml:space="preserve" xmlns:serif="http://www.serif.com/" style="fill-rule:evenodd;clip-rule:evenodd;stroke-linejoin:round;stroke-miterlimit:2;">
    <g id="Artboard1" transform="matrix(1,0,0,1,-35.5424,-32.1325)">
        <rect x="35.542" y="32.133" width="907.423" height="714.118" style="fill:none;"/>
        <clipPath id="_clip1">
            <rect x="35.542" y="32.133" width="907.423" height="714.118"/>
        </clipPath>
        <g clip-path="url(#_clip1)">
            <g transform="matrix(1.58118,0,0,1.58118,-59.7405,-487.778)">
                <path d="M215.229,619.788C176.092,581.299 60.118,587.783 60.605,587.039C102.103,523.656 218.855,445.663 311.822,527.822C372.296,581.265 346.712,665.843 306.211,722.605C284.88,752.5 259.412,774.679 240.199,780.53C240.199,780.53 253.407,731.812 245.287,683.5C252.603,676.972 259.568,669.801 265.918,661.958C291.641,630.182 329.655,562.465 298.276,535.797C295.529,533.463 239.517,590.353 215.229,619.788Z" style="fill:white;fill-opacity:0.8;"/>
            </g>
            <g transform="matrix(1.18847,0,0,1.18331,-27.1549,-208.817)">
                <path d="M252.416,600.57C246.708,607.993 243.557,613.147 244.229,614.711C248.75,625.238 246.073,638.939 239.393,653.64C210.812,659.413 191.824,661.364 191.824,661.364C191.824,661.364 202.63,523.579 291.396,419.742C530.598,139.926 646.697,212.093 646.697,212.093C646.697,212.093 715.369,328.23 444.066,565.809C415.686,590.661 380.157,609.337 344.804,623.251C375.202,576.955 404.019,509.742 369.419,480.209C365.764,477.089 291.244,553.109 258.93,592.44L252.416,600.57Z" style="fill:white;"/>
            </g>
            <g transform="matrix(1.18847,0,0,1.18331,-27.1549,-208.817)">
                <path d="M264.362,598.256C269.982,604.731 274.831,611.673 278.997,618.952C283.164,626.231 286.648,633.847 289.538,641.67C283.756,626.026 275.602,611.208 264.362,598.256Z" style="fill:white;"/>
            </g>
            <g transform="matrix(1.58118,0,0,1.58118,-126.937,-427.595)">
                <g transform="matrix(1,0,0,1,-282.654,375.663)">
                    <path d="M851.425,102.364C911.579,104.873 959.643,154.511 959.643,215.287C959.643,276.062 911.579,325.7 851.425,328.209C889.464,304.985 914.875,263.08 914.875,215.287C914.875,167.493 889.464,125.588 851.425,102.364Z" style="fill:white;"/>
                </g>
                <g transform="matrix(0.761435,0,0,0.761435,-41.3997,427.023)">
                    <path d="M802.657,66.984C852.614,97.485 885.987,152.519 885.987,215.287C885.987,278.054 852.614,333.088 802.657,363.589L796.318,363.75C714.379,363.75 647.855,297.226 647.855,215.287C647.855,133.348 714.379,66.824 796.318,66.824L802.657,66.984Z" style="fill:white;fill-opacity:0.8;"/>
                </g>
            </g>
            <g transform="matrix(0.716389,0,0,1.0177,188.504,-177.745)">
                <path d="M104.135,684.211C97.68,673.677 303.945,523.109 311.822,527.822C381.079,569.254 297.177,674.466 240.401,723.836C143.486,808.108 -18.427,842.432 -37.64,848.283C-37.64,848.283 135.116,734.77 104.135,684.211Z" style="fill:white;fill-opacity:0.9;"/>
            </g>
        </g>
    </g>
</svg>
